<?xml version="1.0" standalone="no"?>
<!DOCTYPE svg PUBLIC "-//W3C//DTD SVG 20010904//EN"
 "http://www.w3.org/TR/2001/REC-SVG-20010904/DTD/svg10.dtd">
<svg version="1.0" xmlns="http://www.w3.org/2000/svg"
 width="320.000000pt" height="320.000000pt" viewBox="0 0 320.000000 320.000000"
 preserveAspectRatio="xMidYMid meet">
<metadata>
Created by potrace 1.14, written by Peter Selinger 2001-2017
</metadata>
<g transform="translate(0.000000,320.000000) scale(0.100000,-0.100000)"
fill="#000000" stroke="none">
<path d="M1503 2790 c-402 -44 -663 -379 -663 -849 0 -436 190 -734 527 -827
90 -25 295 -30 384 -10 139 31 300 147 360 261 13 25 26 45 29 45 3 0 5 -28 3
-62 -1 -35 -5 -124 -7 -198 -4 -148 -20 -220 -66 -316 -45 -92 -100 -148 -183
-188 -94 -45 -183 -60 -321 -53 -233 11 -385 105 -434 269 l-17 58 -107 0
c-123 0 -121 3 -94 -96 75 -283 395 -449 798 -413 145 12 185 23 296 76 188
90 290 237 337 492 13 71 15 209 15 927 l0 845 -107 -3 c-77 -2 -108 -7 -109
-15 -1 -7 -2 -68 -3 -135 l-2 -123 -20 39 c-12 21 -51 69 -88 105 -139 137
-316 194 -528 171z m318 -223 c138 -66 241 -202 291 -384 18 -65 22 -107 22
-248 1 -192 -12 -255 -82 -390 -159 -307 -570 -371 -812 -126 -118 119 -169
252 -177 466 -3 77 -1 160 6 204 34 217 136 381 291 465 85 46 132 56 265 53
115 -3 123 -4 196 -40z"/>
</g>
</svg>
